<?xml version="1.0" encoding="UTF-8" standalone="no"?>
<svg
   xmlns:dc="http://purl.org/dc/elements/1.1/"
   xmlns:cc="http://creativecommons.org/ns#"
   xmlns:rdf="http://www.w3.org/1999/02/22-rdf-syntax-ns#"
   xmlns:svg="http://www.w3.org/2000/svg"
   xmlns="http://www.w3.org/2000/svg"
   xmlns:sodipodi="http://sodipodi.sourceforge.net/DTD/sodipodi-0.dtd"
   xmlns:inkscape="http://www.inkscape.org/namespaces/inkscape"
   version="1.1"
   viewBox="0 0 1024 1024"
   width="1024.0pt"
   height="1024.0pt"
   id="svg296"
   sodipodi:docname="amazonas-fc-logo.svg"
   inkscape:version="0.92.0 r15299">
  <metadata
     id="metadata302">
    <rdf:RDF>
      <cc:Work
         rdf:about="">
        <dc:format>image/svg+xml</dc:format>
        <dc:type
           rdf:resource="http://purl.org/dc/dcmitype/StillImage" />
        <dc:title></dc:title>
      </cc:Work>
    </rdf:RDF>
  </metadata>
  <defs
     id="defs300" />
  <sodipodi:namedview
     pagecolor="#ffffff"
     bordercolor="#666666"
     borderopacity="1"
     objecttolerance="10"
     gridtolerance="10"
     guidetolerance="10"
     inkscape:pageopacity="0"
     inkscape:pageshadow="2"
     inkscape:window-width="1920"
     inkscape:window-height="1017"
     id="namedview298"
     showgrid="false"
     inkscape:zoom="0.17285156"
     inkscape:cx="649.58492"
     inkscape:cy="553.79242"
     inkscape:window-x="-8"
     inkscape:window-y="-8"
     inkscape:window-maximized="1"
     inkscape:current-layer="svg296" />
  <path
     d="m 523.41014,101.82481 c 93.23,26.36 186.48,52.64 279.72,78.98 5.06,1.49 10.49,2.58 15.09,5.1 9.3,4.98 15.97,14.23 18,24.55 0.7,3.71 0.98,7.52 1.41,11.27 11.41,103.17 22.82,206.34 34.24,309.5 0.58,5.74 1.64,11.3 0.87,17.02 -0.55,4.75 -2.14,9.24 -4.37,13.45 -12.84,24.59 -27.13,48.46 -42.36,71.64 -31.42,47.67 -67.38,92.86 -107.72,133.29 -32.19,32.2 -67.44,61.59 -105.74,86.26 -27.96,18.01 -57.45,33.44 -88.42,45.6 -5.47,2.16 -11.45,2.86 -17.27,1.92 -5.34,-0.8 -10.68,-3.45 -15.7,-5.44 -62.43,-25.96 -118.54,-65.17 -167.78,-111.23 -43.31,-40.52 -81.85,-86.71 -115.43,-135.56 -18.94,-27.62 -36.51,-56.28 -52.07,-85.95 -2.34,-4.38 -4.07,-9.01 -4.63,-13.97 -0.74,-5.81 0.27,-11.23 0.86,-17 11.4,-103.02 22.79,-206.03 34.19,-309.05 0.62,-5.22 0.89,-10.94 2.56,-15.91 2.87,-8.82 9.17,-16.43 17.44,-20.67 4.12,-2.16 9.05,-3.24 13.53,-4.54 94.36,-26.63 188.71,-53.26 283.06,-79.89 6.82,-1.940003 13.81,-1.500003 20.52,0.63 z"
     id="path4"
     inkscape:connector-curvature="0"
     style="fill:#ffffff" />
  <path
     d="m 511.89014,111.97481 c 6.02,-0.04 11.06,1.87 16.76,3.43 90.99,25.68 181.99,51.38 272.99,77.05 13.7,3.53 23.79,15.76 25.31,29.73 11.67,105.34 23.32,210.68 34.97,316.02 0.84,7.69 -0.63,14.96 -4.31,21.73 -22.66,43.16 -49.44,84.21 -79.14,122.85 -43.53,56.42 -94.99,108.65 -153.69,149.31 -31.06,21.52 -64.24,39.79 -99.37,53.79 -5.24,2.21 -10.84,3.34 -16.53,2.73 -5.83,-0.5 -10.86,-3 -16.23,-5.15 -59.2,-24.49 -112.51,-61.21 -159.53,-104.47 -43.44,-40 -82.03,-85.9 -115.5,-134.5 -18.69,-27.2 -36.02,-55.43 -51.32,-84.69 -2.24,-4.23 -3.79,-8.77 -4.26,-13.55 -0.6,-5.16 0.27,-9.9 0.79,-15.02 11.14,-100.68 22.29,-201.35 33.41,-302.02 0.56,-4.84 0.81,-9.63 2.39,-14.25 2.76,-8.31 8.63,-15.49 16.38,-19.62 4.26,-2.32 8.98,-3.32 13.63,-4.66 88.77,-25.06 177.55,-50.12 266.32,-75.17 5.76,-1.56 10.86,-3.54 16.93,-3.54 z"
     id="path6"
     inkscape:connector-curvature="0"
     style="fill:#130c15" />
  <path
     d="m 511.88014,126.09481 c 4.15,0.02 8.53,1.69 12.52,2.76 89.68,25.31 179.35,50.64 269.03,75.93 5.85,1.58 11.17,2.77 15.21,7.69 4.58,5.27 4.7,11.15 5.41,17.72 11.11,100.67 22.27,201.34 33.4,302 0.42,4.26 1.32,8.82 0.82,13.06 -0.5,4.05 -2.49,7.44 -4.36,10.98 -8.03,15.09 -16.6,29.87 -25.62,44.39 -29.66,47.66 -63.81,92.79 -102.36,133.62 -31.83,33.67 -67.05,64.61 -105.52,90.5 -28.75,19.35 -59.28,35.84 -91.54,48.54 -4.76,1.86 -9.19,1.81 -13.94,-0.06 -58.07,-22.92 -110.22,-57.93 -156.52,-99.55 -43.32,-38.98 -81.84,-83.98 -115.33,-131.62 -19.75,-28.17 -38.03,-57.49 -54.12,-87.9 -1.68,-3.17 -3.12,-6.28 -3.35,-9.92 -0.23,-3.96 0.52,-8.05 0.92,-11.99 11.35,-102.67 22.72,-205.35 34.06,-308.02 0.49,-5.5 2.88,-10.62 7.18,-14.14 3.99,-3.4 9.3,-4.23 14.18,-5.69 89.24,-25.18 178.48,-50.37 267.71,-75.56 3.92,-1.06 8.16,-2.67 12.22,-2.74 z"
     id="path8"
     inkscape:connector-curvature="0"
     style="fill:#ffac00" />
  <path
     d="m 518.37014,134.64481 c 88.16,24.87 176.31,49.77 264.47,74.64 3.31,0.95 6.75,1.74 9.95,3.02 7.29,2.96 12.77,9.72 14.36,17.41 0.77,3.95 1.02,8.02 1.5,12.01 10.6,95.82 21.19,191.65 31.8,287.47 0.53,5.23 1.66,10.9 0.56,16.07 -0.76,3.88 -2.61,7.18 -4.44,10.64 -21.03,39.36 -45.61,76.87 -72.74,112.29 -41.66,54.21 -90.98,104.61 -147.22,143.76 -28.1,19.55 -57.93,36.31 -89.6,49.37 -5.05,2.04 -9.51,4.33 -15.12,4.28 -5.86,0.03 -11.13,-2.82 -16.46,-4.92 -57.9,-24.13 -109.84,-60.78 -155.38,-103.63 -43.74,-41.2 -82.26,-88.54 -115.35,-138.64 -13.9,-21.12 -26.98,-42.88 -38.74,-65.26 -1.8,-3.44 -3.16,-7.01 -3.4,-10.92 -0.27,-4.62 0.64,-9.41 1.09,-14.02 10.61,-95.99 21.24,-191.98 31.85,-287.97 0.64,-5.24 0.72,-10.63 2.95,-15.47 2.91,-6.54 8.59,-11.5 15.48,-13.44 90.49,-25.57 181,-51.09 271.49,-76.64 4.43,-1.19 8.52,-1.22 12.95,-0.05 z"
     id="path10"
     inkscape:connector-curvature="0"
     style="fill:#130c15" />
  <path
     d="m 515.37014,145.61481 c 88.41,24.92 176.89,49.94 265.3,74.87 4.37,1.32 9.24,1.94 12.34,5.63 3.81,4.18 3.43,9.84 4.15,15.11 10.69,96.68 21.38,193.36 32.09,290.03 0.48,5.49 1.98,10.36 -0.77,15.53 -15.58,29.91 -33.58,58.66 -52.91,86.29 -3.95,-10.12 -8.7,-19.9 -14.35,-29.18 -17.42,-28.67 -41.95,-52.15 -69.84,-70.55 -0.57,0.72 -1.14,1.45 -1.72,2.17 2.15,29.62 -1.17,59.12 -12.9,86.57 -6.92,15.98 -17.31,30.21 -31.49,40.49 -11.9,8.6 -23.13,17 -32.82,28.19 -6.19,7.65 -10.3,17.55 -10.51,27.46 -0.51,7.9 -1.23,15.78 -1.8,23.68 -2.04,0.61 -4.09,1.22 -6.14,1.83 0.16,2.88 0.32,5.76 0.47,8.64 -2.54,-2.15 -5.06,-4.31 -7.6,-6.47 0.18,7.11 0.22,14.22 0.58,21.32 0.58,6.57 -2.67,13.14 -5.88,18.68 -4.81,7.11 -7.12,15.59 -10.94,23.35 -2.01,-4.37 -4,-8.74 -5.99,-13.11 -0.69,4.95 -1.36,9.92 -2.03,14.88 -4.52,-1.97 -9.04,-3.9 -13.59,-5.79 -1.65,2.87 -2.92,6.55 -6.14,7.97 -3.99,1.91 -8.58,3.18 -12.99,3.51 -4.75,0.44 -8.92,-1.1 -13.03,-3.28 -8.41,5.29 -18.19,3.73 -26.6,-0.61 -2.7,-1.33 -3.98,-5.06 -5.38,-7.58 -4.12,1.8 -8.32,3.16 -12.68,4.28 -1.29,-3.94 -2.58,-7.88 -3.89,-11.83 -1.88,4.07 -3.75,8.15 -5.57,12.25 -2.38,-5.86 -4.34,-11.68 -7.28,-17.29 -2.77,-5.36 -5.23,-10.86 -7.62,-16.4 -0.82,-1.95 -1.59,-3.81 -1.53,-5.97 0.18,-7.83 -0.33,-15.61 -0.59,-23.43 -2.16,1.86 -4.32,3.73 -6.48,5.59 0.17,-2.98 0.35,-5.97 0.51,-8.95 -3.75,-1.19 -7.48,-2.37 -11.38,-3.03 1.1,-7.39 1.92,-14.83 2.87,-22.24 1.1,-6.89 -1.81,-13.57 -4.69,-19.67 -3.6,-7.06 -9.13,-12.79 -15.04,-17.97 -6.6,-5.8 -13.46,-11.27 -20.66,-16.3 -16.07,-11.48 -27.79,-27.65 -35.17,-45.87 -10.19,-25.33 -13.23,-53.11 -11.62,-80.23 0.53,-3.45 -2.5,-6.64 -4.12,-9.51 -14.13,8.72 -27.5,18.61 -39.7,29.89 -22.57,20.79 -40.79,45.79 -51.83,74.54 -19.18,-27.45 -37.11,-56.11 -52.65,-85.78 -3.07,-5.46 -1.53,-10.48 -0.99,-16.33 10.95,-98.93 21.88,-197.86 32.84,-296.79 0.37,-3.45 1.67,-6.63 4.25,-9.01 2.82,-2.78 7.54,-3.54 11.24,-4.66 86.11,-24.28 172.21,-48.6 258.32,-72.9 4.59,-1.17 9.16,-3.38 13.95,-2.02 z"
     id="path12"
     inkscape:connector-curvature="0"
     style="fill:#ffac00" />
  <path
     d="m 521.67014,155.57481 c 86.09,23.5 172.19,46.96 258.28,70.45 3.83,1.02 7.65,2.06 11.45,3.2 3.99,35.87 8.2,71.72 12.27,107.58 -193.33,0 -386.65,0 -579.98,0 4.05,-35.9 8.2,-71.79 12.31,-107.68 91.89,-25.08 183.78,-50.11 275.66,-75.2 3.12,-0.92 6.94,0.96 10.01,1.65 z"
     id="path14"
     inkscape:connector-curvature="0"
     style="fill:#130c15" />
  <path
     d="m 476.36014,251.87481 c 6.63,-1.05 13.61,-0.29 19.23,3.62 5.89,4.05 9.33,10.66 10.01,17.7 0.89,8.92 -0.7,17.96 -7.23,24.51 -6.81,7 -17.92,8.26 -26.76,4.83 -7.21,-2.93 -12.28,-9.53 -13.85,-17.07 -1.72,-8.62 -0.71,-18.39 4.89,-25.46 3.34,-4.41 8.27,-7.22 13.71,-8.13 z"
     id="path16"
     inkscape:connector-curvature="0"
     style="fill:#ffac00" />
  <path
     d="m 626.86014,251.61481 c 6.37,-0.55 13.28,0.11 18.48,4.19 2.88,2.19 4.43,5.1 6.11,8.21 -4.3,1.34 -8.61,2.63 -12.92,3.93 -1.4,-1.67 -2.64,-3.8 -4.83,-4.48 -2.31,-0.74 -5.2,-0.91 -7.43,0.15 -1.91,1 -1.83,4.17 0.31,4.88 6.03,2.37 14.26,2.6 19.86,6.17 7.2,4.8 8.25,15.47 2.88,22.02 -4.32,5.18 -10.87,7.29 -17.43,7.61 -6.87,0.31 -14.25,-0.76 -19.49,-5.61 -3.06,-2.75 -4.47,-6.23 -5.92,-9.97 4.83,-0.9 9.66,-1.78 14.51,-2.61 1.42,2.14 2.32,4.3 4.9,5.27 2.74,1.05 6.49,1.21 9.22,0.09 2.62,-1.37 1.62,-4.74 -0.96,-5.45 -6.25,-2.1 -14.3,-2.45 -20.12,-6.94 -6.14,-5.1 -6.28,-15.01 -1.21,-20.89 3.54,-4.24 8.67,-6.07 14.04,-6.57 z"
     id="path18"
     inkscape:connector-curvature="0"
     style="fill:#ffac00" />
  <path
     d="m 761.38014,252.05481 c 4.85,1 9.08,3.73 11.77,7.9 2.52,3.69 3.3,7.77 4.01,12.1 -4.88,0.3 -9.76,0.55 -14.64,0.81 -0.56,-2.88 -0.57,-6.22 -3.02,-8.26 -2.71,-2.4 -7.02,-1.75 -8.86,1.38 -2.26,3.73 -2.37,8.99 -2.37,13.24 0.14,3.36 0.25,7.58 2.13,10.48 2.25,3.49 7.89,3.68 10.3,0.29 1.13,-1.75 1.54,-4.05 2.12,-6.04 4.79,0.28 9.58,0.56 14.37,0.87 -0.97,4.86 -2.09,9.36 -5.64,13.05 -8.84,9.42 -26.68,8.52 -34.35,-1.99 -4.7,-6.11 -5.59,-14.24 -4.93,-21.69 0.65,-7.26 3.64,-14.51 9.67,-18.91 5.53,-3.98 12.95,-4.5 19.44,-3.23 z"
     id="path20"
     inkscape:connector-curvature="0"
     style="fill:#ffac00" />
  <path
     d="m 266.14014,252.44481 c 5.5,-0.43 11.08,-0.04 16.59,-0.15 5.36,17.08 10.73,34.16 16.07,51.25 -5.37,0.01 -10.74,0 -16.11,0 -0.96,-3.36 -1.93,-6.72 -2.9,-10.08 -4.56,-0.01 -9.12,-0.01 -13.68,0 -1.02,3.36 -2.05,6.72 -3.08,10.08 -4.28,0 -8.55,0.01 -12.83,0 4.4,-14.28 8.82,-28.56 13.22,-42.83 0.86,-2.75 1.55,-5.64 2.72,-8.27 z"
     id="path22"
     inkscape:connector-curvature="0"
     style="fill:#ffac00" />
  <path
     d="m 302.70014,252.28481 c 6.88,0 13.75,-0.01 20.63,0.01 2.45,9.01 4.89,18.02 7.39,27.01 2.37,-9 4.7,-18.01 7.06,-27.02 6.89,0 13.78,0 20.67,0.01 -0.01,17.08 0.01,34.17 -0.01,51.25 -4.88,0 -9.75,0 -14.63,0 -0.08,-12.07 0.15,-24.15 -0.14,-36.21 -2.97,12.1 -6.18,24.15 -9.3,36.22 -3.34,-0.01 -6.68,-0.01 -10.02,-0.01 -3.28,-12.11 -6.5,-24.24 -9.8,-36.35 -0.08,12.12 -0.01,24.23 -0.04,36.35 -3.94,0.01 -7.87,0 -11.81,0 -0.01,-17.09 -0.01,-34.17 0,-51.26 z"
     id="path24"
     inkscape:connector-curvature="0"
     style="fill:#ffac00" />
  <path
     d="m 378.28014,252.44481 c 5.51,-0.43 11.1,-0.04 16.62,-0.15 5.35,17.08 10.73,34.16 16.06,51.24 -5.37,0.02 -10.74,0.02 -16.11,0.01 -0.96,-3.37 -1.93,-6.73 -2.9,-10.09 -4.56,0 -9.12,0 -13.68,0.01 -1.01,3.36 -2.05,6.72 -3.08,10.08 -4.27,0 -8.55,0.01 -12.82,0 4.36,-14.19 8.75,-28.37 13.12,-42.55 0.9,-2.85 1.6,-5.82 2.79,-8.55 z"
     id="path26"
     inkscape:connector-curvature="0"
     style="fill:#ffac00" />
  <path
     d="m 413.41014,252.29481 c 13.42,-0.02 26.84,-0.01 40.26,-0.01 -0.01,3.25 0.27,6.6 -0.2,9.81 -1.08,2.28 -2.93,4.24 -4.41,6.27 -5.81,7.67 -11.61,15.34 -17.39,23.04 7.56,0.02 15.12,0 22.69,0.01 0,4.04 0,8.09 0,12.13 -14.22,0.01 -28.44,0 -42.66,0 -0.01,-3.16 -0.23,-6.4 0.15,-9.54 1.01,-2.33 2.94,-4.32 4.44,-6.35 6.02,-7.82 12.05,-15.64 18.02,-23.5 -6.97,-0.03 -13.93,0 -20.9,-0.02 0,-3.95 0,-7.89 0,-11.84 z"
     id="path28"
     inkscape:connector-curvature="0"
     style="fill:#ffac00" />
  <path
     d="m 511.69014,252.28481 c 4.97,0 9.95,0 14.93,0.01 5.68,9.33 12.26,18.27 17.12,28.07 -1.6,-9.5 -0.9,-18.48 -1.04,-28.08 4.28,0 8.57,0 12.86,0.01 0,17.09 0.01,34.18 0,51.27 -4.29,-0.02 -8.58,-0.02 -12.87,-0.01 -6.35,-10.69 -13.74,-20.95 -19.09,-32.18 1.77,10.52 0.53,21.52 0.89,32.17 -4.26,0.01 -8.53,0.01 -12.8,0 -0.01,-17.09 -0.01,-34.17 0,-51.26 z"
     id="path30"
     inkscape:connector-curvature="0"
     style="fill:#ffac00" />
  <path
     d="m 575.34014,252.44481 c 5.5,-0.44 11.09,-0.03 16.61,-0.16 5.36,17.08 10.74,34.16 16.07,51.25 -5.37,0.02 -10.74,0.02 -16.11,0.01 -0.96,-3.37 -1.93,-6.73 -2.89,-10.09 -4.56,0 -9.13,0 -13.69,0.01 -1.01,3.36 -2.05,6.72 -3.07,10.08 -4.28,0 -8.56,0.01 -12.83,-0.01 4.37,-14.18 8.75,-28.36 13.13,-42.54 0.9,-2.84 1.59,-5.81 2.78,-8.55 z"
     id="path32"
     inkscape:connector-curvature="0"
     style="fill:#ffac00" />
  <path
     d="m 676.31014,252.29481 c 12.38,-0.02 24.76,-0.01 37.14,0 0,4.06 0,8.12 0,12.19 -7.25,0 -14.51,-0.01 -21.76,0 0,2.77 0,5.54 0,8.31 5.58,0 11.15,0 16.73,0 0.01,3.85 0.01,7.7 0,11.55 -5.57,0.01 -11.15,0.01 -16.73,0.01 0,6.4 0.01,12.8 -0.01,19.19 -5.12,0 -10.24,0 -15.36,0 -0.01,-17.08 0,-34.17 -0.01,-51.25 z"
     id="path34"
     inkscape:connector-curvature="0"
     style="fill:#ffac00" />
  <path
     d="m 479.25014,263.61481 c 2.6,-1.01 5.65,-0.39 7.26,1.99 2.37,3.44 2.32,8.62 2.32,12.62 -0.15,3.75 -0.2,8.43 -2.18,11.73 -2.29,3.65 -8.18,3.62 -10.36,-0.14 -2.61,-4.41 -2.44,-10.68 -2.13,-15.62 0.33,-3.65 1.31,-8.96 5.09,-10.58 z"
     id="path36"
     inkscape:connector-curvature="0"
     style="fill:#130c15" />
  <path
     d="m 272.91014,267.75481 c 1.45,4.79 2.76,9.61 4.09,14.42 -2.73,0 -5.45,0.01 -8.18,0.01 1.33,-4.82 2.63,-9.64 4.09,-14.43 z"
     id="path38"
     inkscape:connector-curvature="0"
     style="fill:#130c15" />
  <path
     d="m 385.06014,267.56481 c 1.41,4.87 2.75,9.75 4.11,14.63 -2.73,0 -5.46,0.01 -8.2,0.02 1.35,-4.89 2.7,-9.77 4.09,-14.65 z"
     id="path40"
     inkscape:connector-curvature="0"
     style="fill:#130c15" />
  <path
     d="m 582.13014,267.54481 c 1.39,4.88 2.75,9.76 4.1,14.65 -2.73,0 -5.46,0.01 -8.2,0.01 1.36,-4.89 2.72,-9.78 4.1,-14.66 z"
     id="path42"
     inkscape:connector-curvature="0"
     style="fill:#130c15" />
  <path
     d="m 713.00014,289.79481 c 4.75,0 9.5,0 14.25,0 0.01,4.58 0.01,9.17 0,13.75 -4.75,0 -9.5,0.01 -14.25,0 -0.01,-4.58 -0.01,-9.16 0,-13.75 z"
     id="path44"
     inkscape:connector-curvature="0"
     style="fill:#ffac00" />
  <path
     d="m 242.80014,360.30481 c 16.53,-0.02 33.06,-0.01 49.6,0 0,56.89 -0.02,113.79 0.01,170.69 -13.25,11.47 -25.39,24.15 -35.91,38.19 -4.16,-6.4 -8.23,-12.85 -12.25,-19.33 -2.18,-3.1 -1.32,-7.03 -1.47,-10.63 0.04,-59.63 0,-119.28 0.02,-178.92 z"
     id="path46"
     inkscape:connector-curvature="0"
     style="fill:#130c15" />
  <path
     d="m 342.45014,360.29481 c 15.23,0 30.47,-0.01 45.7,0 0,20.7 0.01,41.4 0,62.09 -15.07,-6.84 -30.11,-14.06 -45.71,-19.59 0.02,-14.17 0,-28.33 0.01,-42.5 z"
     id="path48"
     inkscape:connector-curvature="0"
     style="fill:#130c15" />
  <path
     d="m 438.20014,360.29481 c 16.16,-0.01 32.32,0 48.48,0 0,9.06 0,18.13 0,27.19 -16.92,5.03 -32.53,12.3 -48.47,19.74 -0.01,-15.64 0,-31.29 -0.01,-46.93 z"
     id="path50"
     inkscape:connector-curvature="0"
     style="fill:#130c15" />
  <path
     d="m 536.73014,360.29481 c 16.16,0 32.32,0 48.48,0 0,14.03 0.01,28.06 -0.01,42.09 -15.92,-7.1 -31.23,-14.09 -48.46,-17.46 -0.01,-8.21 -0.01,-16.42 -0.01,-24.63 z"
     id="path52"
     inkscape:connector-curvature="0"
     style="fill:#130c15" />
  <path
     d="m 635.26014,360.29481 c 15.25,-0.01 30.51,0 45.76,0 0,15.73 0,31.45 0,47.17 -13.06,5.56 -26.11,11.24 -39.15,16.84 -2.11,0.93 -4.31,1.05 -6.58,1.19 -0.07,-21.73 -0.01,-43.47 -0.03,-65.2 z"
     id="path54"
     inkscape:connector-curvature="0"
     style="fill:#130c15" />
  <path
     d="m 731.07014,360.29481 c 16.51,0 33.02,-0.01 49.53,0 0.01,59.98 -0.03,119.96 0.02,179.93 -0.13,3.19 0.61,6.67 -1.3,9.4 -3.97,6.43 -8.02,12.82 -12.14,19.16 -10.58,-14.01 -22.68,-26.75 -36.07,-38.11 -0.1,-22.15 0.01,-44.3 -0.06,-66.45 0.01,-3.33 -0.21,-6.95 0.6,-10.18 2.97,-11.06 4.63,-23.25 2.72,-34.62 -0.64,-4.66 -3.47,-8.59 -3.33,-13.18 0.06,-15.32 0.02,-30.63 0.03,-45.95 z"
     id="path56"
     inkscape:connector-curvature="0"
     style="fill:#130c15" />
  <path
     d="m 531.89014,388.35481 c 13.77,1.96 26.74,6.98 39.44,12.44 19.78,8.45 38.54,18.36 58.32,26.68 3.1,1.24 6.91,2.8 10.28,2.07 3.8,-0.82 7.45,-2.77 11.04,-4.26 13.56,-5.77 27.03,-11.75 40.66,-17.34 7.49,-3.14 16.13,-5.38 24.29,-4.74 4.69,0.41 8.64,2.93 11.03,6.97 3.46,5.84 4.28,13.4 4.1,20.05 -0.38,12.81 -3.44,25.49 -9.2,36.96 -9.41,18.81 -18.48,38.65 -29.41,56.59 -2.09,3.58 -5.16,6.69 -6.86,10.45 -0.34,3.63 0.24,7.36 0.31,11 0.77,23.44 -2.43,47.26 -10.74,69.26 -5.39,14.19 -13.18,27.23 -24.3,37.69 -5.63,5.37 -11.86,9.26 -17.99,14 -7.19,5.41 -14.01,11.28 -20.25,17.77 -8.8,8.81 -14.7,21.17 -15.25,33.66 -1,-1.84 -2.02,-3.66 -3.05,-5.48 -2.95,9.7 -5.59,19.22 -5.23,29.49 -1.79,-1.55 -3.59,-3.09 -5.39,-4.62 -0.69,8.45 -1.57,16.73 -1.15,25.23 0.07,3.52 0.57,7.29 -0.1,10.76 -1.27,5.04 -3.95,9.74 -6.72,14.09 -2.18,3.45 -3.48,7.13 -4.98,10.89 -1.37,-3.02 -2.75,-6.05 -4.17,-9.06 -4.86,4.36 -6.86,9.47 -7.97,15.78 -3.79,-1.33 -9.43,-5.75 -13.23,-2.94 -3.03,1.67 -1.82,6.89 -4.94,7.99 -4.89,2.21 -11.12,3.78 -16.41,2.32 -3.06,-0.83 -4.94,-2.88 -7.17,-4.97 -2.69,2.56 -4.99,4.98 -8.91,5.41 -5.06,0.64 -11.5,-0.78 -15.82,-3.55 -1.85,-2.9 -1.33,-6.69 -5.21,-7.89 -3.64,-1.06 -8.13,2.23 -11.6,3.37 -1.63,-6.51 -3.72,-10.9 -8.04,-16.03 -1.37,2.98 -2.54,6.37 -4.47,9 -3.65,-6.85 -6.97,-13.9 -10.09,-21 -0.67,-1.6 -1.5,-3.37 -1.62,-5.11 -0.1,-11.42 -0.63,-22.84 -1.13,-34.25 -1.76,1.48 -3.52,2.97 -5.26,4.47 0.35,-10.26 -2.32,-19.76 -5.25,-29.47 -1.12,2 -2.22,4.02 -3.28,6.07 0.31,-13.46 -7.31,-27.17 -16.84,-36.32 -8.35,-8.04 -17.55,-15.27 -27.02,-21.96 -14.11,-10.3 -24.65,-24.5 -31.53,-40.48 -10.41,-24.33 -13.86,-51.82 -12.57,-78.11 0.03,-3.31 0.82,-6.37 -1.01,-9.33 -4.92,-8.37 -10.46,-16.37 -14.99,-24.99 -8.31,-15.89 -16.57,-32 -23.72,-48.45 -5.67,-13.08 -7.13,-27.87 -4.09,-41.79 1.03,-4.39 2.95,-8.58 6.77,-11.19 4.28,-2.93 9.79,-3.03 14.74,-2.26 10.64,1.68 21.07,5.77 30.92,10.05 9.94,4.35 19.84,8.7 29.63,13.38 3.01,1.42 6.05,2.54 9.42,2.54 5.71,0.3 11.3,-3.34 16.47,-5.53 18.18,-8.07 36,-16.97 54.35,-24.65 11.42,-4.59 23.87,-9.3 36.17,-10.5 9.62,-0.98 19.43,-1.62 29.02,-0.16 z"
     id="path58"
     inkscape:connector-curvature="0"
     style="fill:#130c15" />
  <path
     d="m 520.67014,399.72481 c 17.32,3.67 34.4,8.64 51.07,14.61 -3.69,0.61 -8.49,0.88 -11.63,3.11 -2.98,2.29 0.88,4.71 2.92,5.62 7.62,3.46 16.37,3.82 24.37,1.52 2.38,-0.52 4.22,-1.62 6.6,-0.42 9.14,4.13 18.2,8.47 27.32,12.64 5.05,2.29 9.94,4.22 15.57,4.36 5.42,0.25 10.59,-1.16 15.44,-3.5 11.65,-5.53 23.47,-10.71 35.4,-15.61 7.74,-3.28 16.06,-5.32 24.24,-7.17 -4.56,2.26 -9.23,4.25 -13.66,6.77 -16.05,8.9 -29.46,20.4 -42.74,32.92 2.98,0.76 5.87,1.65 8.74,2.75 -2.53,1.63 -5.09,3.22 -7.65,4.81 3.9,0.89 7.79,1.78 11.68,2.7 -4.35,2.45 -8.73,4.87 -13.07,7.35 3.46,1.25 6.92,2.52 10.35,3.86 -3.75,1 -7.53,1.94 -11.3,2.9 6.42,14.92 12.72,29.76 17.81,45.21 1.8,5.4 1.7,11.38 2.06,17.07 1.25,25.58 -1.85,51.38 -12.36,74.93 -7.02,15.59 -18.56,28.82 -32.84,38.18 -13.56,8.76 -25.23,20 -34.27,33.38 -0.89,-1.58 -1.81,-3.15 -2.71,-4.73 -4.14,11.56 -7.72,23.33 -11.65,34.96 -1.87,-1.63 -3.73,-3.27 -5.6,-4.89 -1.62,14.68 -2.34,29.46 -3.59,44.18 -0.43,4.03 -0.24,8.03 -0.12,12.08 0.22,2.14 -1.48,2.96 -2.86,4.2 -3.79,2.9 -7.64,5.6 -11.07,8.94 -2.03,1.88 -4.01,4.22 -6.43,5.58 -3.35,1.51 -7.4,1.13 -10.8,3.18 -2.8,1.56 -4.66,3.98 -6.3,6.67 -1.04,1.38 -1.64,3.32 -3.73,3.09 -4.4,-0.35 -8.67,-3.14 -12.97,-3.79 -4.53,0.39 -9.58,4.26 -14.04,3.43 -3.27,-2.45 -4.66,-6.75 -8.42,-8.94 -3.98,-2.85 -8.13,-2.31 -12.56,-3.47 -2.24,-2.46 -3.81,-5.39 -6.37,-7.61 -3.12,-3.01 -7.12,-4.81 -10.33,-7.65 -3.14,-2.92 -2.43,-8.8 -2.69,-12.72 -0.65,-15.71 -1.63,-31.57 -3.41,-47.21 -1.9,1.61 -3.79,3.21 -5.68,4.81 -3.92,-11.62 -7.48,-23.38 -11.6,-34.93 -0.9,1.61 -1.86,3.18 -2.76,4.79 -8.06,-12.31 -18.65,-21.51 -30.04,-30.59 -5.13,-3.96 -10.7,-7.09 -15.55,-11.45 -11.32,-9.86 -19.18,-22.62 -24.33,-36.63 -9.13,-25.15 -11.31,-52.08 -8.54,-78.59 0.88,-7.49 4.02,-13.98 6.6,-20.98 3.8,-10.37 8.18,-20.46 12.33,-30.69 -3.76,-0.97 -7.51,-1.94 -11.27,-2.9 3.54,-1.27 7.08,-2.53 10.61,-3.8 -4.3,-2.47 -8.61,-4.91 -12.92,-7.37 3.79,-0.91 7.57,-1.81 11.35,-2.74 -2.56,-1.63 -5.14,-3.24 -7.73,-4.84 2.82,-0.89 5.64,-1.79 8.46,-2.71 -4.71,-5.88 -10.38,-10.38 -16.3,-14.96 -12.25,-9.29 -25.25,-17.57 -38.88,-24.67 11.66,1.64 23.37,6.71 34.1,11.44 9.21,4.08 18.42,8.15 27.53,12.45 7.13,3.31 15.05,3.41 22.3,0.42 10.4,-4.49 20.68,-9.27 30.96,-14.02 1.36,-0.59 2.69,-1.17 4.14,-1.49 3.73,0.42 7.31,1.8 11.07,2.17 6.51,0.76 14.1,-0.13 19.69,-3.76 1.57,-1.15 3.32,-3.14 1.35,-4.83 -3.2,-1.85 -7.4,-2.17 -10.94,-3.11 14.75,-5.56 29.59,-8.9 44.87,-12.8 4.41,-1.01 8.18,-2.51 12.78,-1.51 z"
     id="path60"
     inkscape:connector-curvature="0"
     style="fill:#ffac00" />
  <path
     d="m 493.01014,407.35481 c 4.63,-1.43 8.14,0.83 12.4,2.15 2.96,1.04 6.8,1.07 9.34,2.92 0.36,2.05 -1.2,2.89 -2.46,4.18 -2.11,1.89 -4.62,3.39 -6.63,5.4 -1.55,2.05 -0.41,7.23 -3.76,7.75 -3.45,-1.53 -7.25,-4.1 -9.93,-6.77 l 0.23,-1.52 c 4.08,-1.43 8.22,-1.57 11.91,-4.13 -5.32,-2.6 -11.12,-2.99 -16.16,-6.07 1.51,-1.69 2.74,-3.34 5.06,-3.91 z"
     id="path62"
     inkscape:connector-curvature="0"
     style="fill:#130c15" />
  <path
     d="m 545.98014,410.94481 c -4.69,3.89 -10.46,3.59 -16.03,6.39 4,2.62 8.49,2.85 12.79,4.64 -2.74,3.9 -5.85,7.14 -10.87,7.63 -3.47,-0.37 -1.37,-6.43 -4.17,-8.15 -2.51,-2.5 -8.24,-5.17 -8.55,-8.99 4.29,-2.02 9.2,-2.79 13.69,-4.39 4.73,-1.55 9.78,-1.15 13.14,2.87 z"
     id="path64"
     inkscape:connector-curvature="0"
     style="fill:#130c15" />
  <path
     d="m 716.75014,415.04481 c 1.14,2.64 2.16,5.24 2.42,8.13 0.94,11.39 -0.14,22.8 -5.12,33.21 -9.98,21.09 -20.16,42.8 -32.27,62.75 -1.99,3.4 -4.58,6.22 -7.52,8.81 -3.6,-16.33 -7.31,-32.2 -14.88,-47.26 6.1,-2.57 12.24,-2.26 18.71,-2.15 -4.62,-3.9 -10.01,-5.73 -15.65,-7.58 7.31,-4.92 16.48,-1.96 24.55,-1.21 -6.41,-5.9 -14.16,-7.18 -22.48,-8.15 7.86,-4.74 16.4,-5.82 25.41,-6.19 -9.16,-2.14 -17.67,-0.73 -26.91,-0.58 6.69,-8.27 14.82,-14.89 23.49,-20.97 9.75,-6.77 19.98,-12.87 30.25,-18.81 z"
     id="path66"
     inkscape:connector-curvature="0"
     style="fill:#ffac00" />
  <path
     d="m 316.84014,415.87481 c 3.04,-0.05 6.1,2.28 8.68,3.72 15.78,9.49 33.42,20.29 45.09,34.74 -8.35,0.2 -16.27,-0.28 -24.52,1.47 -0.61,0.69 -1.23,1.36 -1.87,2.02 -3.34,0.24 -6.59,-0.26 -9.87,-0.88 9.68,-4.27 21.93,-4.07 32.35,-4.49 -12.08,-9.43 -24.92,-17.93 -37.76,-26.29 -2.93,-1.98 -5.93,-3.64 -9.29,-4.79 -1.21,3.67 -1.61,7 -1.25,10.85 0.92,10.69 3.9,21.24 8.61,30.88 7.32,15.96 15.51,31.47 24.41,46.6 1.38,2.2 3.08,4.03 4.81,5.95 2.65,-12.07 8.52,-22.38 14.13,-33.21 -6.8,-1.85 -13.36,-1.03 -20.28,-1.04 3.72,-6.23 9.58,-7.89 15.85,-10.57 -8.47,-2.38 -16.09,-0.43 -24.45,1.02 5.74,-7.53 13.94,-9.24 22.62,-11.41 -5.91,-2.17 -11.93,-2.19 -18.13,-2.38 0.24,-0.65 0.52,-1.28 0.85,-1.87 7.73,0.73 14.73,0.56 21.5,5.02 -7.75,1.26 -14.92,2.63 -20.85,8.2 5.2,-0.95 10.08,-2.17 15.44,-1.52 3.22,0.35 6.08,1.55 9.05,2.76 -5.96,1.98 -11.7,3.88 -16.64,7.95 6.62,-0.37 12.97,-0.56 19.3,1.73 -7.44,15.19 -11.45,31.33 -14.95,47.77 -2.26,-2.37 -4.48,-4.64 -6.18,-7.47 -10.31,-17.7 -20.1,-35.69 -28.74,-54.28 -2.91,-6.43 -6.55,-13.09 -8.27,-19.9 -2.06,-7.91 -2.32,-16.14 -1.54,-24.26 0.28,-2.3 0.43,-4.42 1.9,-6.32 z"
     id="path68"
     inkscape:connector-curvature="0"
     style="fill:#ffac00" />
  <path
     d="m 714.25014,423.07481 c 2.21,4.91 1.63,9.75 1.05,14.94 -1.33,9.2 -3.95,18.21 -8.06,26.56 -7.3,15.99 -15.5,31.48 -24.38,46.64 -1.4,2.3 -3.18,4.22 -4.98,6.2 -2.64,-12.04 -8.48,-22.34 -14.1,-33.14 7.14,-2.44 14.48,-3.07 21.95,-3.58 -4.45,-6.22 -10.89,-6.96 -17.58,-9.47 9.13,-2.5 17.11,-0.27 26.12,1.24 -5.98,-7.75 -15.18,-9.6 -24.13,-11.9 10.51,-3.75 20.41,-1.89 31.18,-4.31 -10.38,-4.18 -23.21,-3.42 -34.24,-3.81 10.8,-8.05 22.52,-14.93 33.95,-22.07 4.33,-2.63 8.49,-5.41 13.22,-7.3 z"
     id="path70"
     inkscape:connector-curvature="0"
     style="fill:#130c15" />
  <path
     d="m 487.20014,428.70481 c -6.19,4.03 -14.21,9.71 -21.9,8.95 -0.22,-4.48 2.69,-7.87 6.75,-9.29 4.97,-1.7 10.15,-0.66 15.15,0.34 z"
     id="path72"
     inkscape:connector-curvature="0"
     style="fill:#130c15" />
  <path
     d="m 546.83014,428.71481 c 5.74,-1.07 11.58,-2.12 17.13,0.42 2.7,1.24 5.52,4.86 4.81,7.93 -1.22,1.31 -3.59,0.81 -5.12,0.43 -5.97,-1.68 -11.7,-5.37 -16.82,-8.78 z"
     id="path74"
     inkscape:connector-curvature="0"
     style="fill:#130c15" />
  <path
     d="m 453.56014,430.48481 c -4.22,5.76 -10.22,7.45 -15.45,11.98 -2.17,1.86 -3.02,5.36 -4.2,7.89 -3.03,-5.01 -3.08,-13.46 3.43,-15.69 5.06,-1.99 10.74,-6.04 16.22,-4.18 z"
     id="path76"
     inkscape:connector-curvature="0"
     style="fill:#130c15" />
  <path
     d="m 584.89014,429.90481 c 3.52,1.01 6.87,2.64 10.23,4.07 2.32,1.13 5.14,2.12 6.13,4.75 1.61,4.03 0.91,7.92 -1.18,11.6 -1.02,-2.27 -1.84,-4.92 -3.37,-6.9 -4.45,-5.15 -12.02,-7.12 -16.27,-12.3 1.31,-1.62 2.54,-1.66 4.46,-1.22 z"
     id="path78"
     inkscape:connector-curvature="0"
     style="fill:#130c15" />
  <path
     d="m 507.00014,441.30481 c 3.33,0.59 6.27,2.11 6.26,5.94 -0.64,2.91 -2.64,5.64 -4.14,8.19 -1.92,2.97 -3.78,6.52 -7.35,7.73 -2.14,0.72 -4.78,-0.61 -5.23,-2.89 -0.4,-3.48 0.78,-7.28 1.46,-10.69 2.6,0.53 6.77,2.43 9.19,0.93 1.21,-2.56 -0.26,-6.37 -0.19,-9.21 z"
     id="path80"
     inkscape:connector-curvature="0"
     style="fill:#130c15" />
  <path
     d="m 527.20014,441.16481 c -0.25,2.86 -1.3,6.24 -0.58,9.04 1.82,2.12 6.96,-0.14 9.33,-0.56 1.02,3.73 2.32,7.71 1.11,11.55 -0.61,1.7 -2.34,2.62 -4.07,2.01 -4.86,-1.49 -7.3,-6.28 -9.75,-10.33 -1.25,-2.49 -3.45,-5.37 -1.86,-8.2 1.21,-2.41 3.53,-2.65 5.82,-3.51 z"
     id="path82"
     inkscape:connector-curvature="0"
     style="fill:#130c15" />
  <path
     d="m 489.90014,443.34481 c 2.37,-0.4 3.43,2.5 4.82,3.93 -5.83,5.59 -14.58,10.72 -22.87,10.23 -3.93,-0.8 -2.34,-6.63 0.05,-8.21 5.32,-3.18 11.78,-5.62 18,-5.95 z"
     id="path84"
     inkscape:connector-curvature="0"
     style="fill:#130c15" />
  <path
     d="m 543.88014,443.38481 c 6.3,0.27 12.62,2.78 18.13,5.73 2.7,1.27 3.57,4.75 1.97,7.2 -1.37,1.56 -4.21,1.56 -6.12,1.43 -4.41,-0.4 -7.63,-3 -11.32,-5.16 -2.06,-1.28 -4.32,-2.37 -6.22,-3.89 -1.74,-2.16 0.95,-5.69 3.56,-5.31 z"
     id="path86"
     inkscape:connector-curvature="0"
     style="fill:#130c15" />
  <path
     d="m 457.06014,445.30481 c 0.81,1.44 -0.26,2.84 -1.19,3.9 -4.09,4.16 -8.47,7.91 -13.86,10.27 -0.72,-1.82 -2.2,-4.08 -1.93,-6.09 0.96,-3.98 4.59,-7.21 8.32,-8.61 3.02,-1.03 5.99,-1.71 8.66,0.53 z"
     id="path88"
     inkscape:connector-curvature="0"
     style="fill:#130c15" />
  <path
     d="m 579.85014,444.02481 c 6.14,-0.66 12.2,3.46 14.11,9.26 0.85,2.33 -0.89,4.65 -1.9,6.64 -4.42,-2.7 -8.47,-6.04 -12.49,-9.4 -1.49,-1.21 -2.42,-2.78 -3.32,-4.45 1.08,-0.75 2.27,-1.87 3.6,-2.05 z"
     id="path90"
     inkscape:connector-curvature="0"
     style="fill:#130c15" />
  <path
     d="m 422.93014,446.00481 c 3.82,-1.27 6.17,2.89 6.16,6.18 -2.46,2.16 -5.23,3.24 -7.14,6.06 -2.12,2.95 -3.4,5.74 -7.14,6.97 -0.36,-3 -0.1,-5.19 1.07,-7.94 1.65,-3.92 3.7,-8.51 7.05,-11.27 z"
     id="path92"
     inkscape:connector-curvature="0"
     style="fill:#130c15" />
  <path
     d="m 612.07014,447.05481 c 3.42,3.64 6.11,8.81 7.34,13.65 0.42,1.82 0.45,5.16 -2.34,4.4 -2.5,-2.46 -4,-6.08 -6.53,-8.54 -1.73,-2.02 -6.14,-3.02 -5.37,-6.15 0.41,-2.94 4.38,-6.21 6.9,-3.36 z"
     id="path94"
     inkscape:connector-curvature="0"
     style="fill:#130c15" />
  <path
     d="m 403.07014,447.10481 c -0.78,5.49 -4.18,8.76 -7.18,13.12 -2.41,3.24 -4.18,6.79 -5.99,10.38 -1.44,-3.33 -3.61,-6.43 -1.72,-10.11 2.01,-3.77 4.34,-7.64 7.06,-10.95 2.17,-2.41 4.83,-2.32 7.83,-2.44 z"
     id="path96"
     inkscape:connector-curvature="0"
     style="fill:#130c15" />
  <path
     d="m 636.81014,448.26481 c 4.63,2.85 7.03,8.05 9.21,12.82 1.66,3.53 -0.54,6.39 -1.9,9.55 -1.8,-3.38 -3.52,-6.77 -5.7,-9.93 -2.85,-4.4 -6.34,-7.56 -7.06,-13.05 1.71,0.06 4.01,-0.45 5.45,0.61 z"
     id="path98"
     inkscape:connector-curvature="0"
     style="fill:#130c15" />
  <path
     d="m 432.25014,458.55481 c 3.53,-1.42 5.07,3.76 2.87,5.87 -1.3,1.33 -2.98,2.47 -4.08,3.96 -1.05,1.92 -0.42,4.7 -0.34,6.82 -3.2,-0.24 -6.56,-0.73 -7.57,3.15 0.47,3.77 3.75,7.09 4.53,10.87 -0.33,3.18 -4.74,5.78 -7.55,3.79 -3.09,-2.09 -5.53,-5.27 -7.96,-8.07 -1.38,-1.87 -3.54,-3.95 -1.92,-6.37 2.77,-3.41 8.5,-4.71 11.84,-7.17 3.45,-3.74 5.97,-9.69 10.18,-12.85 z"
     id="path100"
     inkscape:connector-curvature="0"
     style="fill:#130c15" />
  <path
     d="m 454.84014,457.88481 c 2.22,-0.35 6.34,-0.37 7.8,1.65 0.73,3.3 -2.44,7.04 -4.18,9.62 1.14,2.24 2.25,4.5 3.3,6.79 -6.16,-1.12 -10.89,-4.36 -16.01,-7.7 2.49,-1.11 4.9,-1.34 5.69,-4.36 0.86,-1.84 0.92,-5.66 3.4,-6 z"
     id="path102"
     inkscape:connector-curvature="0"
     style="fill:#130c15" />
  <path
     d="m 580.53014,458.61481 c 1.68,2.04 1.48,5.66 3.34,7.61 1.49,0.89 3.27,1.36 4.9,1.96 -5.25,3.29 -10.25,6.77 -16.52,7.71 1.04,-2.22 2.15,-4.4 3.28,-6.57 -1.38,-2.2 -2.98,-4.47 -3.93,-6.89 -0.46,-1.39 -0.79,-2.85 0.77,-3.66 2.25,-1.02 6.02,-1.65 8.16,-0.16 z"
     id="path104"
     inkscape:connector-curvature="0"
     style="fill:#130c15" />
  <path
     d="m 515.19014,459.03481 c 0.63,2.46 1.24,4.92 1.84,7.38 0.55,-2.33 1.09,-4.66 1.65,-6.99 2.44,1.48 5.15,2.83 6.87,5.18 1.5,1.95 1.94,4.96 0.41,7.02 -3.32,0.35 -7.54,-2.61 -11.1,-1.41 -2.13,0.34 -4.91,1.98 -6.97,1.23 -1.03,-1.84 -1.25,-4.26 0.19,-5.96 1.9,-2.49 4.66,-4.51 7.11,-6.45 z"
     id="path106"
     inkscape:connector-curvature="0"
     style="fill:#130c15" />
  <path
     d="m 599.62014,458.29481 c 1.48,0.63 2.92,0.92 3.95,2.26 2.65,3.05 4.68,6.65 7.32,9.71 3.16,3.8 9.63,4.5 12.77,8.24 1.62,2.29 -0.04,4.24 -1.41,6.08 -2.41,2.85 -4.85,5.9 -7.82,8.18 -2.84,2.52 -7.69,-0.11 -8.37,-3.4 1.18,-3.67 4.43,-7.24 4.75,-11.06 -0.34,-3.55 -4.57,-2.98 -7.11,-3.38 -0.07,-1.72 0.02,-3.54 -0.38,-5.22 -1.35,-2.46 -3.73,-4.39 -5.04,-6.88 -0.4,-1.54 0.74,-3.18 1.34,-4.53 z"
     id="path108"
     inkscape:connector-curvature="0"
     style="fill:#130c15" />
  <path
     d="m 405.94014,460.80481 c 2.48,0.5 3.87,2.74 2.59,5.07 -1.84,1.58 -4.5,2.21 -6.59,3.44 -1.8,0.92 -3.07,3 -4.32,4.54 -0.7,-0.4 -1.38,-0.83 -2.05,-1.28 -1.5,-1.38 -0.23,-3.7 0.4,-5.24 1.74,-3.41 5.84,-7.33 9.97,-6.53 z"
     id="path110"
     inkscape:connector-curvature="0"
     style="fill:#130c15" />
  <path
     d="m 630.91014,461.07481 c 4.16,1.34 8.17,5.67 8.24,10.19 -0.59,0.98 -1.23,1.93 -1.91,2.85 -2.67,-2.28 -4.87,-4.69 -8.17,-6.1 -1.69,-1 -4.13,-1.36 -4.07,-3.79 0.14,-3.04 3.42,-3.87 5.91,-3.15 z"
     id="path112"
     inkscape:connector-curvature="0"
     style="fill:#130c15" />
  <path
     d="m 549.00014,466.87481 c 0.71,4.18 -0.48,7.9 -1.51,11.88 3.97,-2.32 8.07,-4.98 12.45,-6.42 1.7,-0.6 2.99,-0.42 4.61,0.28 0.55,2.43 0.41,4.87 -1.79,6.43 -5.57,4.45 -11.14,9.05 -17.13,12.94 -2.81,1.66 -6.15,3.7 -9.41,1.92 -2.09,-3.03 3.72,-6.13 4.58,-8.78 1.4,-5.19 2.07,-10.32 4.82,-15.25 0.9,-1.18 2.24,-2.07 3.38,-3 z"
     id="path114"
     inkscape:connector-curvature="0"
     style="fill:#130c15" />
  <path
     d="m 484.66014,467.36481 c 1.79,1.01 3.52,1.6 4.61,3.46 2.77,4.26 2.57,8.66 3.62,13.41 0.41,2.24 3.13,3.75 3.97,5.81 0.49,1.33 0.81,2.75 1.16,4.12 -1.59,0.07 -3.47,0.62 -5,0.08 -5.92,-2.31 -10.19,-6.2 -14.86,-10.29 -2.62,-2.36 -6.03,-4.01 -8.36,-6.64 -1.39,-1.94 -1.07,-5.87 2.08,-5.61 5.17,1.41 9.99,4.44 14.65,7.02 -1.09,-3.73 -2,-7.43 -1.87,-11.36 z"
     id="path116"
     inkscape:connector-curvature="0"
     style="fill:#130c15" />
  <path
     d="m 447.44014,473.68481 c 6.12,2.28 11.91,7.6 14.36,13.7 1.1,2.5 1.44,5.63 3.03,7.85 2.75,2.92 6.04,5.14 8.38,8.48 -5.73,1.59 -10.76,-2.69 -15.04,-5.86 1.12,-2.48 3.29,-5.73 2.66,-8.56 -0.61,-2.85 -3.39,-4.34 -5.96,-5.13 -3.78,-1.16 -7.17,-0.38 -10.94,0.23 2.28,4.05 4.89,7.79 6.67,12.12 -4.27,-1.95 -8.38,-4.22 -12.46,-6.52 -1.03,-0.72 -2.75,-1.38 -2.89,-2.75 2.41,-3.47 5.28,-6.54 7.48,-10.17 1.14,-1.41 2.47,-4.36 4.71,-3.39 z"
     id="path118"
     inkscape:connector-curvature="0"
     style="fill:#130c15" />
  <path
     d="m 589.88014,475.21481 c 2.78,4.43 5.53,8.59 9.35,12.22 -4.44,4.34 -10.35,6.65 -16.03,8.9 2.17,-4.03 4.6,-7.89 6.92,-11.84 -5.65,-1.13 -11.85,-1.82 -16.09,2.92 -2.49,3.42 0.36,7.42 1.85,10.61 -4.75,3.52 -9.1,6.62 -15.34,6.38 2.75,-5.66 8.61,-6.82 10.4,-13.16 1.87,-6.78 5.34,-11.95 11.51,-15.48 2.23,-1.12 5.7,-3.78 7.43,-0.55 z"
     id="path120"
     inkscape:connector-curvature="0"
     style="fill:#130c15" />
  <path
     d="m 396.89014,480.27481 c 1.3,0.31 2.55,0.95 3.79,1.49 -3.72,3.16 -7.08,6.66 -11.14,9.14 -8.83,5.25 -13.57,14.99 -21.66,20.5 0.25,-1.73 0.22,-3.33 1.19,-4.85 3.54,-6 8.91,-8.76 13.47,-13.68 3.28,-3.52 6.54,-7.67 10.3,-10.74 1.17,-0.9 2.5,-1.9 4.05,-1.86 z"
     id="path122"
     inkscape:connector-curvature="0"
     style="fill:#130c15" />
  <path
     d="m 639.18014,480.92481 c 5.51,3.16 9.71,9.36 14.15,13.85 3.39,3.65 7.59,6.53 10.81,10.3 1.77,1.99 1.57,4.2 1.95,6.68 -7.01,-5.1 -10.96,-12.47 -17.96,-17.77 -3.29,-2.45 -6.77,-4.34 -9.47,-7.53 -1.65,-2.01 -3.56,-3.07 -5.92,-4.09 2.15,-0.96 4.03,-2.83 6.44,-1.44 z"
     id="path124"
     inkscape:connector-curvature="0"
     style="fill:#130c15" />
  <path
     d="m 629.82014,486.54481 c 2.08,2.85 4.04,5.68 6.51,8.22 3.36,3.55 7.01,6.12 9.87,10.14 2.59,3.67 4.59,8.01 5.66,12.36 0.51,1.83 -0.15,3.32 -0.53,5.09 -2.11,-0.75 -4.08,-1.21 -5.56,-3.02 -3.81,-4.31 -5.12,-11.23 -7.83,-16.23 -1.55,-2.23 -4.29,-3.78 -5.7,-6.26 -1.79,-3.15 -1.98,-6.78 -2.42,-10.3 z"
     id="path126"
     inkscape:connector-curvature="0"
     style="fill:#130c15" />
  <path
     d="m 404.29014,486.78481 c -0.52,3.89 -0.71,7.5 -3.07,10.79 -1.63,2.26 -4.55,3.76 -5.68,6.27 -2.15,4.53 -3.68,9.54 -6.21,13.87 -1.36,2.08 -3.78,4.51 -6.49,3.97 -1.28,-1.23 -1.33,-2.64 -0.72,-4.21 1.13,-3.37 2.59,-6.66 4.22,-9.81 3.78,-7.48 10.87,-11.27 15.72,-18.23 0.74,-0.89 1.48,-1.77 2.23,-2.65 z"
     id="path128"
     inkscape:connector-curvature="0"
     style="fill:#130c15" />
  <path
     d="m 508.84014,488.29481 c 1.94,0.15 2.97,1.61 3.58,3.31 1.3,3.84 2.21,7.88 2.92,11.87 0.17,1.81 0.66,3.86 -1.25,4.92 -4.35,2.24 -9.36,3.29 -13.96,4.97 -3.77,1.01 -6.61,3.19 -10.45,1.16 0.46,-1.05 0.93,-2.1 1.4,-3.15 6.7,-2.43 14.5,-2.46 20.64,-6.02 -2.18,-3.23 -5.2,-5.38 -8.1,-7.89 -1.51,-1.46 -3.11,-3.23 -2.02,-5.44 1.38,-2.11 4.71,-3.88 7.24,-3.73 z"
     id="path130"
     inkscape:connector-curvature="0"
     style="fill:#130c15" />
  <path
     d="m 524.21014,488.56481 c 2.96,-0.79 7.03,1.29 8.36,4 1.03,2.46 -1.42,3.94 -2.95,5.38 -2.88,2.23 -4.81,4.36 -6.73,7.47 5.91,3.81 12.22,3 18.53,5.32 1.83,0.62 2.27,2.32 3.32,3.79 -1.96,0.49 -3.64,1.19 -5.65,0.45 -5.77,-1.79 -11.53,-3.72 -17.25,-5.67 -2.29,-0.73 -3.96,-2.18 -3.62,-4.78 0.65,-3.74 1.86,-7.4 2.82,-11.07 0.74,-1.97 0.82,-4.24 3.17,-4.89 z"
     id="path132"
     inkscape:connector-curvature="0"
     style="fill:#130c15" />
  <path
     d="m 413.64014,498.36481 c 0.43,5.23 -1.85,10.4 -6.14,13.48 -4.93,3.45 -9.21,7.6 -13.85,11.41 -0.04,-1.33 0.01,-2.64 0.16,-3.95 2.36,-4.18 7.4,-7.18 10.33,-10.81 1.5,-3.33 1.33,-8.36 3.69,-11.3 1.63,-1.84 5.28,-1.41 5.81,1.17 z"
     id="path134"
     inkscape:connector-curvature="0"
     style="fill:#130c15" />
  <path
     d="m 626.44014,497.66481 c 2.1,2.87 2.05,7.52 3.29,10.71 2.89,3.64 7.22,6.2 9.89,10.16 1,1.29 0.53,3.49 0.6,5.03 -4.73,-3.9 -8.77,-8.4 -13.95,-11.76 -4.61,-2.92 -6.27,-8.5 -5.91,-13.69 1.2,-2.35 4.54,-2.52 6.08,-0.45 z"
     id="path136"
     inkscape:connector-curvature="0"
     style="fill:#130c15" />
  <path
     d="m 440.91014,506.54481 c 11.89,0.82 21.23,7.12 30.07,14.56 4.34,3.6 9.05,8.47 14.87,9.29 5.09,0.48 10.3,-0.8 15.43,-0.79 -4.22,1.45 -8.43,2.4 -12.77,3.54 5.7,4.64 12.36,8.24 17.61,13.36 -9.62,-3.45 -19.59,-11.15 -30.23,-10.96 -8.61,-0.04 -15.06,3.91 -22.13,8.21 6.16,-6.33 13,-10.31 21.48,-12.75 -2.47,-0.84 -4.99,-1.89 -7.57,-2.36 -2.58,-0.49 -5.43,0.76 -7.9,1.47 -8.36,2.76 -17.65,2.48 -25.76,-0.98 -9.01,-3.82 -16.47,-11.06 -21.4,-19.43 8.98,-2.59 18.98,-3.7 28.3,-3.16 z"
     id="path138"
     inkscape:connector-curvature="0"
     style="fill:#130c15" />
  <path
     d="m 604.92014,507.10481 c 5.64,0.68 11.04,0.81 16.41,2.88 -4.16,6.72 -9.86,12.94 -16.71,16.97 -8.22,4.85 -18.3,6.18 -27.51,3.77 -3.35,-0.74 -6.77,-2.18 -10.2,-2.36 -3.01,0.46 -5.94,1.78 -8.84,2.68 8.67,2.63 16.66,6.37 22.77,13.26 -7.12,-4.22 -13.28,-8.47 -21.94,-8.66 -11.44,-0.55 -20.95,6.37 -30.88,10.97 5.43,-5.45 11.42,-9.73 18.25,-13.27 -5.11,-1.34 -10.37,-2.44 -15.36,-4.17 6.58,0.56 12.16,2.47 18.79,0.66 6.86,-1.75 10.58,-6.75 16.07,-10.75 6.2,-4.56 12.77,-9.62 20.34,-11.48 6.33,-1.7 12.38,-1.17 18.81,-0.5 z"
     id="path140"
     inkscape:connector-curvature="0"
     style="fill:#130c15" />
  <path
     d="m 446.60014,510.32481 c 0.97,2.64 1.61,5.03 1.13,7.88 0.04,2.01 -1.12,4.97 1.05,6.19 2.08,1.22 4.23,-0.12 5.28,-2.01 1.66,-3.2 0.24,-6.81 -0.61,-10.01 3.29,2.26 7.32,4.27 9.94,7.32 1.39,1.78 0.58,3.71 -0.95,5.04 -4.58,3.99 -11.76,4.67 -17.57,4.81 -3.33,0.04 -6.44,-1.24 -7.98,-4.34 -1.83,-3.77 -2.94,-9.24 0.52,-12.45 2.69,-2.53 5.76,-2.24 9.19,-2.43 z"
     id="path142"
     inkscape:connector-curvature="0"
     style="fill:#ffac00" />
  <path
     d="m 590.29014,510.43481 c 3.52,0.23 6.85,1.66 8.05,5.24 1.23,4.03 -0.08,9.85 -3.73,12.29 -5.65,3.21 -13.05,0.91 -19.01,-0.44 -3.3,-0.8 -6.53,-4.03 -5.06,-7.6 3.18,-4.09 8.69,-6.77 13.37,-8.75 -1.63,3.8 -3.81,8.37 -1.24,12.27 1.6,2.36 5.14,2.74 6.14,-0.28 0.16,-4.75 -1.59,-8.44 1.48,-12.73 z"
     id="path144"
     inkscape:connector-curvature="0"
     style="fill:#ffac00" />
  <path
     d="m 626.99014,519.31481 c 1.76,0.34 2.37,1.49 3.09,2.98 -1.12,1.27 -3.02,1.66 -4.52,2.52 -1.39,2.12 -1.78,5.77 -4.5,6.49 -4.48,1.32 -9.27,1.78 -13.89,2.4 3.9,-2.18 7.77,-4.08 11.16,-7.07 2.91,-2.29 5.36,-5.65 8.66,-7.32 z"
     id="path146"
     inkscape:connector-curvature="0"
     style="fill:#130c15" />
  <path
     d="m 407.73014,519.16481 c 5.89,5.86 11.75,11.3 19.59,14.45 -4.78,-0.59 -9.74,-1.06 -14.37,-2.42 -2.77,-0.79 -3.15,-4.31 -4.56,-6.49 -1.33,-0.73 -2.78,-1.19 -4.09,-1.93 -1.08,-2.29 2.09,-2.63 3.43,-3.61 z"
     id="path148"
     inkscape:connector-curvature="0"
     style="fill:#130c15" />
  <path
     d="m 366.09014,520.59481 c 0.47,3.3 0.36,6.36 2.42,9.16 4.52,-1.81 9.67,-5.68 14.61,-3.48 -1.95,4.26 -5.51,6.33 -8.93,9.24 -2.68,2.18 -5.23,4.52 -7.76,6.87 -1.26,-7.33 -2.2,-14.45 -0.34,-21.79 z"
     id="path150"
     inkscape:connector-curvature="0"
     style="fill:#130c15" />
  <path
     d="m 667.75014,520.80481 c 1.85,7.21 1.15,14.23 -0.2,21.44 -4.49,-3.74 -9.02,-7.44 -13.44,-11.26 -1.58,-1.3 -2.27,-3.03 -3.16,-4.81 5.6,-1.82 9,1.8 14.06,3.32 l 1.43,-0.68 c 1.01,-2.45 0.99,-5.4 1.31,-8.01 z"
     id="path152"
     inkscape:connector-curvature="0"
     style="fill:#130c15" />
  <path
     d="m 391.86014,530.58481 c 2.94,1.52 4.91,4.76 8.2,5.43 3.72,0.78 7.49,1.15 11.15,2.22 -3.76,1.49 -7.92,2.59 -11.04,5.25 -4.07,3.37 -4.9,8.49 -8.99,12.03 -2.43,2.1 -5.81,4.4 -9.12,4.45 -1.96,-0.2 -2.55,-1.96 -2.44,-3.7 0.51,-6.18 2.63,-12.31 5.54,-17.76 1.69,-2.98 3.58,-6.27 6.7,-7.92 z"
     id="path154"
     inkscape:connector-curvature="0"
     style="fill:#130c15" />
  <path
     d="m 641.96014,530.47481 c 2.61,2.04 4.74,4.44 6.34,7.35 3.14,5.62 5.48,12 6,18.44 0.1,1.8 -0.37,3.78 -2.52,3.85 -6.79,-0.78 -11.27,-5.84 -14.14,-11.67 -3.17,-5.92 -8.56,-7.9 -14.57,-9.88 3.26,-1.33 6.62,-1.7 10.05,-2.25 3.64,-0.55 6.08,-3.68 8.84,-5.84 z"
     id="path156"
     inkscape:connector-curvature="0"
     style="fill:#130c15" />
  <path
     d="m 452.48014,535.43481 c -2.64,2.88 -5.41,5 -9.52,5.03 0.45,-1.21 0.98,-2.38 1.6,-3.51 2.42,-1.02 5.33,-1.26 7.92,-1.52 z"
     id="path158"
     inkscape:connector-curvature="0"
     style="fill:#130c15" />
  <path
     d="m 581.64014,535.66481 c 2.73,0.12 5.84,0.31 8.33,1.5 1.63,0.71 1.22,4.17 -0.91,3.73 -2.83,-1.03 -5.37,-3.05 -7.42,-5.23 z"
     id="path160"
     inkscape:connector-curvature="0"
     style="fill:#130c15" />
  <path
     d="m 416.87014,543.87481 c 1.67,-0.05 3.92,-0.57 4.95,1.15 -3.31,4.14 -8.51,5.03 -13.45,5.69 0.6,-1.63 0.98,-3.58 2.02,-5 1.74,-1.3 4.38,-1.57 6.48,-1.84 z"
     id="path162"
     inkscape:connector-curvature="0"
     style="fill:#130c15" />
  <path
     d="m 611.99014,544.04481 c 3.36,-0.08 7.63,-0.26 10.67,1.39 1.51,1.31 2.4,3.41 3.44,5.08 -5.41,-0.22 -11.85,-0.56 -14.11,-6.47 z"
     id="path164"
     inkscape:connector-curvature="0"
     style="fill:#130c15" />
  <path
     d="m 599.44014,545.69481 c 3.18,1.36 6.26,2.95 9.35,4.51 -1.43,3.09 -3.52,7.7 -7.74,6.86 -3.36,-1.29 -7.15,-6.5 -5.53,-10.13 1.24,-0.58 2.59,-0.94 3.92,-1.24 z"
     id="path166"
     inkscape:connector-curvature="0"
     style="fill:#130c15" />
  <path
     d="m 433.11014,546.47481 c 1.92,-0.37 3.63,-0.9 5.44,0.15 1.05,3.51 -1.63,7.88 -4.47,9.82 -3.79,2.66 -8.21,-2.81 -8.52,-6.22 1.88,-2.1 4.9,-3.07 7.55,-3.75 z"
     id="path168"
     inkscape:connector-curvature="0"
     style="fill:#130c15" />
  <path
     d="m 363.89014,548.50481 c 2.64,1.11 5.58,2.1 7.88,3.84 2.13,2.13 2.45,6.06 2.14,8.89 -0.38,3.35 -4.84,3.64 -7.32,4.63 0.9,-2.34 2.39,-5.03 2.08,-7.6 -0.35,-3.55 -2.96,-6.79 -4.78,-9.76 z"
     id="path170"
     inkscape:connector-curvature="0"
     style="fill:#130c15" />
  <path
     d="m 669.45014,549.00481 c -1.53,2.96 -3.57,6.13 -4.19,9.42 -0.52,3.02 1.09,5.09 2.3,7.68 -2.15,-0.6 -4.59,-0.92 -6.56,-2 -0.8,-3.26 -1.02,-7.42 0.15,-10.6 1.66,-2.43 5.74,-3.24 8.3,-4.5 z"
     id="path172"
     inkscape:connector-curvature="0"
     style="fill:#130c15" />
  <path
     d="m 444.10014,552.11481 c -1.53,3.32 -2.82,6.45 -5.87,8.69 1.45,-3.35 3.33,-6.09 5.87,-8.69 z"
     id="path174"
     inkscape:connector-curvature="0"
     style="fill:#130c15" />
  <path
     d="m 589.87014,552.43481 c 2.59,2.4 4.45,5.25 5.87,8.46 -3.03,-2.17 -4.29,-5.23 -5.87,-8.46 z"
     id="path176"
     inkscape:connector-curvature="0"
     style="fill:#130c15" />
  <path
     d="m 465.49014,560.71481 c 6.29,4.91 8.81,11.54 11.94,18.58 11.24,-2.18 21.82,-4.61 33.46,-4.14 4.68,0.25 9.33,0.12 14,-0.13 10.44,-0.49 21.26,2.24 31.42,4.52 3.33,-7.08 5.81,-13.8 12.25,-18.75 -2.56,5.38 -5.68,10.46 -8.36,15.77 -1.9,3.48 -1.15,7.99 -2.38,11.57 -2.47,5.11 -7.57,8.85 -11.31,12.69 -3.76,3.99 -4.21,9.16 -7.29,13.75 -2.6,3.83 -6.31,7.14 -9.48,10.51 -2.45,2.57 -4.47,5.4 -7.2,7.71 -0.69,0.74 -2.05,1.52 -2.14,2.61 -0.37,2.88 -0.32,6.51 0.13,9.39 0.29,2.39 2.99,3 4.85,3.79 10.86,3.59 21.74,7.15 32.73,10.31 2.54,0.75 5.1,1.19 7.76,1.13 11.21,-0.4 22.28,-0.44 33.3,-2.81 -10.6,15.69 -22.67,33.46 -27.04,52.08 -3.6,16.45 -5.63,33.3 -8.34,49.92 -0.5,1.78 -0.43,3.94 -2.89,3.68 -11.31,0.17 -22.7,-0.36 -34.01,-0.57 -17.77,-0.48 -35.98,1 -53.86,0.42 -1.29,-0.02 -2.33,-0.58 -2.67,-1.89 -3.26,-15.84 -3.38,-32.12 -7.65,-47.57 -5.52,-21.06 -15.92,-39.9 -28.98,-57.18 8.02,3.95 15.68,2.39 24.19,3.57 6.92,0.77 14.26,0.57 20.96,-1.46 10.11,-3.07 20.01,-6.67 30.05,-9.95 1.44,-0.5 2.94,-1.03 4.26,-1.8 0.66,-3.17 0.48,-6.62 0.14,-9.82 -0.24,-2.52 -2.47,-4.09 -4.13,-5.74 -4.29,-3.81 -7.76,-8.16 -11.57,-12.43 -2.04,-2.36 -4.17,-4.7 -5.34,-7.64 -1.45,-3.42 -1.68,-6.87 -4.37,-9.63 -3.89,-3.99 -9.27,-7.62 -12.08,-12.99 -1.6,-3.08 0.15,-7.36 -1.52,-10.44 -2.79,-5.75 -6.17,-11.23 -8.83,-17.06 z"
     id="path178"
     inkscape:connector-curvature="0"
     style="fill:#130c15" />
  <path
     d="m 406.87014,565.93481 c 3.53,0.12 7.14,2.75 10.26,4.27 -2.66,1.28 -5.82,2.26 -8.1,4.16 -2.77,2.42 -3.71,6.57 -5.74,9.26 -1.73,1.94 -4.94,2.87 -7.35,1.72 -1.65,-1.06 -1.76,-3.54 -2.3,-5.28 2.12,-0.24 5.74,1.48 6.5,-1.38 1.88,-3.74 2.93,-10.59 6.73,-12.75 z"
     id="path180"
     inkscape:connector-curvature="0"
     style="fill:#130c15" />
  <path
     d="m 625.90014,566.03481 c 1.96,0.01 3.62,2.14 4.42,3.74 1.68,3.5 2.69,7.3 4.23,10.87 1.92,-0.21 3.85,-0.31 5.77,-0.49 -0.66,1.94 -0.63,4.7 -2.88,5.55 -2.3,0.74 -5.39,-0.26 -7.04,-1.98 -1.89,-2.72 -2.52,-6.42 -5.08,-8.93 -2.08,-2.14 -5.33,-2.86 -8.06,-3.91 2.56,-2.3 5.15,-4.27 8.64,-4.85 z"
     id="path182"
     inkscape:connector-curvature="0"
     style="fill:#130c15" />
  <path
     d="m 430.92014,572.57481 c 2.73,1.09 5.13,3.37 7.54,5.07 7.81,5.7 16.36,9.63 25.89,11.45 -3.54,0.08 -6.99,0.18 -10.47,-0.64 -9.95,-2.21 -19.38,-6.71 -27.15,-13.34 1.39,-0.89 2.71,-1.8 4.19,-2.54 z"
     id="path184"
     inkscape:connector-curvature="0"
     style="fill:#130c15" />
  <path
     d="m 602.88014,572.76481 c 1.59,0.68 3,1.57 4.49,2.44 -10.64,8.54 -23.33,14.1 -37.11,14.34 4.99,-1.88 9.74,-3.11 14.41,-5.53 4.49,-2.34 8.76,-5.16 12.84,-8.15 1.67,-1.18 3.4,-2.51 5.37,-3.1 z"
     id="path186"
     inkscape:connector-curvature="0"
     style="fill:#130c15" />
  <path
     d="m 376.07014,577.00481 c 3.15,6.87 4.41,14.6 7.57,21.47 2.86,5.95 7.69,8.93 11.55,14.44 3.53,4.99 6.65,10.59 8.27,16.5 0.52,2.66 1.33,6.21 -1.75,7.61 -4.23,1.63 -9.65,-1.57 -10.58,-5.95 -1.2,-4.5 -1.28,-9.34 -2.47,-13.85 -0.65,-2.26 -2.17,-4.37 -3.41,-6.35 -2.99,-4.51 -5.51,-9.1 -8.86,-13.36 3.06,8.54 8.19,15.02 9.65,24.23 -5.9,-1.73 -10.49,-7.01 -13.62,-12.07 -3.42,-5.69 -3.89,-11.95 -3.48,-18.45 0.35,-4.45 0.25,-9.2 1.48,-13.51 0.75,-2.48 4.48,-3.3 5.65,-0.71 z"
     id="path188"
     inkscape:connector-curvature="0"
     style="fill:#130c15" />
  <path
     d="m 660.88014,575.27481 c 3.89,3.53 3.81,8.08 4.3,12.94 0.47,8.72 -0.27,17.41 -5.67,24.62 -2.91,3.65 -6.73,7.52 -11.36,8.79 1.16,-8.32 6.4,-16.2 9.47,-23.97 -4.24,4.67 -7.73,10.06 -10.7,15.61 -3.35,6.07 -2.7,14.42 -5.22,20.77 -1.5,2.42 -5.14,3.55 -7.85,3.5 -2.81,-0.13 -4.54,-2.58 -3.97,-5.3 0.97,-6.62 4.8,-13.04 8.52,-18.5 2.78,-4.18 6.48,-7.54 9.49,-11.51 4.34,-6.42 6.2,-14.4 8.47,-21.51 0.71,-2.55 2.43,-3.99 4.52,-5.44 z"
     id="path190"
     inkscape:connector-curvature="0"
     style="fill:#130c15" />
  <path
     d="m 503.88014,580.86481 c 6.41,0.95 12.49,2.26 19.03,1.23 4.42,-0.31 8.02,-2.52 12.19,-0.15 -3.66,1.66 -8.95,2.68 -11.68,5.76 -2.03,2.28 -2.76,7.53 -6.55,6.95 -4.08,-0.01 -4.33,-6.54 -6.59,-8.74 -3.43,-1.61 -7.34,-2.2 -10.92,-3.46 1.51,-0.87 2.62,-1.93 4.52,-1.59 z"
     id="path192"
     inkscape:connector-curvature="0"
     style="fill:#ffac00" />
  <path
     d="m 424.45014,586.89481 c 0.68,0.94 1.34,1.88 2.01,2.82 3.14,4.8 7.1,8.94 11.99,11.95 6.7,4.23 14.05,6.09 21.77,7.41 -10.97,-0.28 -22.77,-2.38 -31.09,-10.1 -3.56,-3.38 -4.82,-7.16 -4.68,-12.08 z"
     id="path194"
     inkscape:connector-curvature="0"
     style="fill:#130c15" />
  <path
     d="m 609.45014,587.01481 c 0.2,5.6 -1.58,9.42 -5.73,13.03 -8.2,6.77 -19.06,8.78 -29.41,9.03 6.72,-1.23 13.22,-2.83 19.23,-6.2 5.7,-3.1 10.36,-7.62 13.89,-13.04 0.66,-0.94 1.34,-1.88 2.02,-2.82 z"
     id="path196"
     inkscape:connector-curvature="0"
     style="fill:#130c15" />
  <path
     d="m 449.09014,593.36481 c 1.83,-0.89 4.8,1.25 6.08,2.56 1.8,1.41 1.25,3.96 -0.71,4.85 -2,0.84 -4.71,1.53 -6.81,0.72 -2.43,-2.43 -1.88,-6.77 1.44,-8.13 z"
     id="path198"
     inkscape:connector-curvature="0"
     style="fill:#130c15" />
  <path
     d="m 582.31014,593.65481 c 2.92,-1.81 6.24,1.59 5.79,4.57 -0.21,1.79 -1,3.78 -3.14,3.64 -2.02,-0.09 -5.21,-0.46 -6.5,-2.22 -1.68,-2.8 1.77,-4.87 3.85,-5.99 z"
     id="path200"
     inkscape:connector-curvature="0"
     style="fill:#130c15" />
  <path
     d="m 463.33014,599.65481 c 1.79,-1.14 4.28,1.22 5.34,2.51 -0.3,2.78 -2.48,2.76 -4.72,3.01 -2.81,0.18 -2.87,-4.57 -0.62,-5.52 z"
     id="path202"
     inkscape:connector-curvature="0"
     style="fill:#130c15" />
  <path
     d="m 571.27014,599.84481 c 2.08,1.32 1.62,5.97 -1.39,5.31 -2.36,0.01 -3.43,-1.12 -4.78,-2.86 1.62,-0.96 4.22,-4.18 6.17,-2.45 z"
     id="path204"
     inkscape:connector-curvature="0"
     style="fill:#130c15" />
  <path
     d="m 475.11014,605.33481 c 1.63,-1.01 3.85,-0.97 4.74,0.99 0.67,1.5 1.77,4.79 -0.38,5.51 -2.03,0.67 -4.72,-1.14 -6.05,-2.59 -0.11,-1.47 0.45,-3.04 1.69,-3.91 z"
     id="path206"
     inkscape:connector-curvature="0"
     style="fill:#130c15" />
  <path
     d="m 555.11014,605.38481 c 2.56,-2.37 7.18,1.43 5.28,4.35 -1.4,1.37 -4.89,3.44 -6.5,1.39 -0.85,-1.55 0.09,-4.43 1.22,-5.74 z"
     id="path208"
     inkscape:connector-curvature="0"
     style="fill:#130c15" />
  <path
     d="m 612.83014,604.84481 c -0.55,3.05 -0.83,5.85 -3.14,8.15 -4.33,4.52 -9.74,8.11 -15.5,10.54 -8.75,3.69 -18.71,4.41 -28.08,3.56 4.82,-1.45 9.93,-1.38 14.77,-2.89 12.39,-3.28 23.03,-10.27 31.95,-19.36 z"
     id="path210"
     inkscape:connector-curvature="0"
     style="fill:#130c15" />
  <path
     d="m 420.95014,604.93481 c 1.01,0.77 2.02,1.55 3.03,2.33 8.18,6.66 16.39,13.08 26.64,16.22 5.66,1.87 11.41,2.09 17.18,3.33 -16.19,2.12 -32.81,-2.25 -44.09,-14.44 -1.93,-2.16 -2.04,-4.73 -2.76,-7.44 z"
     id="path212"
     inkscape:connector-curvature="0"
     style="fill:#130c15" />
  <path
     d="m 486.02014,612.35481 c 1.51,0.17 2.56,1.05 3.8,1.83 -1.31,0.67 -2.62,1.3 -3.97,1.89 -0.16,-1.33 -0.53,-2.46 0.17,-3.72 z"
     id="path214"
     inkscape:connector-curvature="0"
     style="fill:#130c15" />
  <path
     d="m 546.41014,612.74481 c 2.03,-1.29 3.17,1.31 1.93,2.91 -1.08,-0.1 -2.12,-0.35 -3.15,-0.69 -0.07,-1.05 0.34,-1.79 1.22,-2.22 z"
     id="path216"
     inkscape:connector-curvature="0"
     style="fill:#130c15" />
  <path
     d="m 458.22014,614.56481 c 1.88,-1.92 4.45,-0.13 5.98,1.34 1.47,1.21 1.16,2.35 0.09,3.7 -1.91,1.03 -4.33,1.58 -6.43,0.84 -1.1,-1.93 -1.47,-4.26 0.36,-5.88 z"
     id="path218"
     inkscape:connector-curvature="0"
     style="fill:#130c15" />
  <path
     d="m 572.09014,614.38481 c 2.81,-1.99 5.79,0.9 5.2,3.86 -0.36,4.03 -5.39,2.51 -7.58,1.12 -1.68,-2.33 0.57,-3.84 2.38,-4.98 z"
     id="path220"
     inkscape:connector-curvature="0"
     style="fill:#130c15" />
  <path
     d="m 472.14014,616.38481 c 1.5,-1.19 4.47,0.91 5.42,2.21 1.05,0.86 0.16,2.96 -0.99,3.29 -1.5,0.64 -3.13,0.86 -4.74,0.75 -2.15,-1.48 -2.03,-4.99 0.31,-6.25 z"
     id="path222"
     inkscape:connector-curvature="0"
     style="fill:#130c15" />
  <path
     d="m 559.23014,616.56481 c 3.85,-2.13 6.17,3.05 3.7,5.94 -1.92,0.28 -4.78,0.12 -6.2,-1.37 -1.53,-2.13 0.91,-3.6 2.5,-4.57 z"
     id="path224"
     inkscape:connector-curvature="0"
     style="fill:#130c15" />
  <path
     d="m 485.32014,621.65481 c 1.94,-0.76 6.87,2.99 3.86,4.87 -1.58,0.78 -3.44,1.11 -5.14,0.53 -1.09,-2.08 -1.1,-4.32 1.28,-5.4 z"
     id="path226"
     inkscape:connector-curvature="0"
     style="fill:#130c15" />
  <path
     d="m 546.14014,622.35481 c 2.44,-1.97 5.16,-0.02 4.76,2.8 0.02,3.3 -4.57,2.35 -6.19,0.97 -1.55,-1.51 0.22,-2.87 1.43,-3.77 z"
     id="path228"
     inkscape:connector-curvature="0"
     style="fill:#130c15" />
  <path
     d="m 604.37014,622.73481 c 2.34,-0.87 4.85,1.48 5.39,3.63 0.44,2.67 -0.4,6.3 -3.86,5.92 -3.09,-0.31 -7.72,-0.79 -7.32,-5.02 1.3,-2.12 3.44,-3.74 5.79,-4.53 z"
     id="path230"
     inkscape:connector-curvature="0"
     style="fill:#130c15" />
  <path
     d="m 411.13014,622.75481 c 2.48,2.51 4.85,5.12 7.19,7.76 -0.85,1.54 -1.94,2.82 -1.93,4.66 -0.25,5.86 2.01,10.5 3.47,16.02 -1.82,-1.05 -3.69,-1.24 -4.49,-3.37 -3.1,-8.14 -5.49,-16.26 -4.24,-25.07 z"
     id="path232"
     inkscape:connector-curvature="0"
     style="fill:#130c15" />
  <path
     d="m 426.29014,623.62481 c 2.69,-2.64 6.71,0.35 8.63,2.55 1.57,1.39 0.61,4.14 -1.17,4.86 -2.18,0.95 -5.26,1.74 -7.54,0.88 -2.46,-1.88 -2.42,-6.39 0.08,-8.29 z"
     id="path234"
     inkscape:connector-curvature="0"
     style="fill:#130c15" />
  <path
     d="m 622.29014,622.86481 c 1.07,4.21 1.32,8.12 0.41,12.39 -1.26,6.06 -3.2,12.57 -8.69,16.13 2.14,-5.96 3.17,-11.78 3.76,-18.06 -0.75,-0.75 -1.5,-1.49 -2.25,-2.24 1.4,-1.97 2.83,-3.91 4.43,-5.72 0.77,-0.84 1.55,-1.67 2.34,-2.5 z"
     id="path236"
     inkscape:connector-curvature="0"
     style="fill:#130c15" />
  <path
     d="m 497.21014,628.42481 c 1.51,0.5 2.18,1.64 3.05,2.88 -1.3,0.2 -2.61,0.39 -3.93,0.45 -0.56,-1.73 -0.37,-2.08 0.88,-3.33 z"
     id="path238"
     inkscape:connector-curvature="0"
     style="fill:#130c15" />
  <path
     d="m 537.54014,628.60481 c 0.84,1.21 0.48,2.37 0.49,3.73 -1.43,-0.63 -2.83,-1.31 -4.22,-2.02 1.28,-0.67 2.28,-1.49 3.73,-1.71 z"
     id="path240"
     inkscape:connector-curvature="0"
     style="fill:#130c15" />
  <path
     d="m 441.29014,629.66481 c 1.66,-0.32 4.61,1.79 4.69,3.51 -0.71,2.13 -3.28,2.17 -5.16,2.36 -2.63,-0.99 -2.14,-5.16 0.47,-5.87 z"
     id="path242"
     inkscape:connector-curvature="0"
     style="fill:#130c15" />
  <path
     d="m 590.25014,630.52481 c 2.49,-2.02 5.17,-0.28 4.91,2.67 0,3.41 -4.83,2.45 -6.31,0.86 -1.49,-0.96 0.46,-2.88 1.4,-3.53 z"
     id="path244"
     inkscape:connector-curvature="0"
     style="fill:#130c15" />
  <path
     d="m 451.24014,633.57481 c 2.41,-0.75 5.49,1.54 7.08,3.2 1.79,1.5 1.26,4.18 -0.66,5.26 -2.28,1.12 -5.22,1.75 -7.73,1.25 -3.53,-2.28 -2.72,-8.32 1.31,-9.71 z"
     id="path246"
     inkscape:connector-curvature="0"
     style="fill:#130c15" />
  <path
     d="m 580.37014,633.74481 c 5.38,-1.97 8.4,6.27 4.3,9.31 -2.26,0.98 -5.53,0.07 -7.73,-0.86 -1.71,-0.65 -2.62,-2.99 -1.65,-4.55 1.21,-1.77 3.12,-3.09 5.08,-3.9 z"
     id="path248"
     inkscape:connector-curvature="0"
     style="fill:#130c15" />
  <path
     d="m 429.31014,637.62481 c 2.77,-0.84 6.63,2.17 7.7,4.64 0,3.91 -5.29,4.45 -8.17,4.33 -3.9,-1.18 -3.26,-7.74 0.47,-8.97 z"
     id="path250"
     inkscape:connector-curvature="0"
     style="fill:#130c15" />
  <path
     d="m 465.04014,637.33481 c 2.19,-1.22 5.55,1.32 6.89,3.02 1.37,1.28 0.15,3.83 -1.5,4.35 -1.95,0.69 -5.38,1.74 -7.06,0.08 -1.59,-2.63 -1.21,-5.96 1.67,-7.45 z"
     id="path252"
     inkscape:connector-curvature="0"
     style="fill:#130c15" />
  <path
     d="m 566.14014,637.46481 c 4.89,-2.37 7.88,5.47 3.79,8.02 -2.73,0.44 -8.59,-0.22 -8.18,-4.19 1,-1.74 2.57,-3.03 4.39,-3.83 z"
     id="path254"
     inkscape:connector-curvature="0"
     style="fill:#130c15" />
  <path
     d="m 602.38014,637.75481 c 2.79,-1.36 5.79,1.74 5.72,4.46 -0.11,1.98 -0.75,4.4 -3.16,4.44 -2.26,-0.04 -5.75,-0.45 -7.18,-2.46 -1.75,-2.82 2.41,-5.49 4.62,-6.44 z"
     id="path256"
     inkscape:connector-curvature="0"
     style="fill:#130c15" />
  <path
     d="m 478.83014,638.26481 c 1.7,0.61 3.2,1.98 4.64,3.04 -1.91,2.6 -3.23,3.06 -6.42,2.8 -1.82,-2.19 -1.23,-5.3 1.78,-5.84 z"
     id="path258"
     inkscape:connector-curvature="0"
     style="fill:#130c15" />
  <path
     d="m 488.33014,638.64481 c 1.68,-1.11 4.29,1.24 5.26,2.51 -0.1,2.7 -2.54,2.86 -4.65,3.03 -2.88,0.23 -2.86,-4.58 -0.61,-5.54 z"
     id="path260"
     inkscape:connector-curvature="0"
     style="fill:#130c15" />
  <path
     d="m 546.27014,638.84481 c 2.04,1.47 0.93,3.48 0.75,5.52 -3.04,-0.4 -5.13,-0.16 -6.87,-3.09 1.61,-0.94 4.19,-4.12 6.12,-2.43 z"
     id="path262"
     inkscape:connector-curvature="0"
     style="fill:#130c15" />
  <path
     d="m 557.09014,638.96481 c 1.81,1.34 0.71,3.35 0.72,5.26 -2.24,-0.34 -6.41,0.31 -6.41,-3.04 1.08,-1.47 3.94,-4 5.69,-2.22 z"
     id="path264"
     inkscape:connector-curvature="0"
     style="fill:#130c15" />
  <path
     d="m 443.38014,645.71481 c 1.67,-2.63 8.21,2 5.07,4.08 -1.45,0.78 -3.03,0.96 -4.65,0.95 -1.53,-1.22 -1.89,-3.61 -0.42,-5.03 z"
     id="path266"
     inkscape:connector-curvature="0"
     style="fill:#130c15" />
  <path
     d="m 587.25014,645.56481 c 2.57,-1.95 5.23,0.73 4.42,3.46 -0.46,2.89 -4.56,1.51 -6.19,0.54 -1.15,-2.06 0.2,-2.92 1.77,-4 z"
     id="path268"
     inkscape:connector-curvature="0"
     style="fill:#130c15" />
  <path
     d="m 519.68014,651.63481 c 3.73,1.08 7.23,2.85 10.97,3.95 12.88,3.98 26.96,8.4 40.5,8.61 0.97,7.6 -0.93,14.64 -3.62,21.66 -2.38,5.89 -5.1,11.37 -10.31,15.27 -1.29,-13.35 -5.43,-25.83 -9.64,-38.47 -1.93,1.88 -3.86,3.77 -5.8,5.65 -1.53,-2.36 -3.05,-4.72 -4.51,-7.12 -2.03,4.01 -3.54,6 -8.02,7.25 -1.01,-2.5 -2.01,-5 -3.02,-7.49 -1.48,2.36 -2.97,4.71 -4.47,7.07 -1.62,-2.63 -3.24,-5.25 -4.87,-7.87 -1.62,2.63 -3.23,5.28 -4.84,7.91 -1.47,-2.35 -2.93,-4.7 -4.39,-7.05 -1.08,2.52 -2.15,5.04 -3.24,7.56 -1.66,-0.85 -3.63,-1.58 -4.99,-2.88 -1.14,-1.32 -1.93,-3.01 -2.78,-4.53 -1.51,2.36 -3.06,4.71 -4.62,7.04 -1.93,-1.85 -3.86,-3.7 -5.79,-5.55 -4.21,12.68 -8.47,25.08 -9.56,38.52 -3.03,-2.38 -5.49,-5.04 -7.26,-8.49 -4.59,-8.56 -7.55,-18.7 -6.78,-28.47 15.37,-0.51 28.97,-5.07 43.49,-9.62 4.26,-1.3 9.06,-4.33 13.55,-2.95 z"
     id="path270"
     inkscape:connector-curvature="0"
     style="fill:#ffac00" />
  <path
     d="m 207.30014,679.51481 c 4.13,3.71 8.07,7.49 11.33,12.02 9.32,12.67 13.35,28.64 11.89,44.26 -7.34,-5.11 -13.72,-11.27 -18.24,-19.04 -5.98,-10.16 -8,-22.47 -5.68,-34.03 0.22,-1.07 0.46,-2.14 0.7,-3.21 z"
     id="path272"
     inkscape:connector-curvature="0"
     style="fill:#ffac00" />
  <path
     d="m 816.15014,679.61481 c 2.85,10.96 1.95,22.75 -2.85,33.03 -4.46,9.65 -11.76,17.18 -20.43,23.17 -0.59,-7.6 -0.15,-15.21 1.78,-22.6 3.26,-13.25 10.95,-25 21.5,-33.6 z"
     id="path274"
     inkscape:connector-curvature="0"
     style="fill:#ffac00" />
  <path
     d="m 477.69014,714.40481 c 3.87,5.41 8.33,10.3 12.66,15.34 1.91,2.12 3.71,4.29 6.53,5.2 2.76,-1.68 4.56,-5.14 6.68,-7.56 1.29,2.71 2.58,5.41 3.92,8.1 1.56,-2.55 3.12,-5.1 4.68,-7.65 1.56,2.88 3.13,5.77 4.71,8.65 1.57,-2.88 3.14,-5.76 4.71,-8.64 1.58,2.58 3.16,5.16 4.72,7.75 1.27,-2.73 2.56,-5.45 3.86,-8.17 2.03,2.48 3.86,5.21 6.15,7.46 1.46,0.12 2.43,-0.92 3.55,-1.7 6.3,-4.96 10.86,-12.21 16.47,-18.06 -0.2,10.77 -3.11,20.92 -6.57,31.02 -0.85,2.21 -2.1,4.43 -4.89,3.42 -3.08,-1.34 -5.6,-4.37 -8,-6.67 -1.08,1 -2.28,3 -3.86,3.12 -2.21,-0.64 -4.18,-2.47 -6.02,-3.81 -1.57,1.16 -3.21,2.75 -5.1,3.32 -1.9,-0.43 -3.55,-1.24 -5.34,-1.99 -1.43,0.78 -3,2.28 -4.67,2.28 -1.94,-0.5 -3.49,-2.52 -4.94,-3.82 -1.87,1.4 -3.89,3.36 -6.18,3.99 -1.6,-0.03 -2.83,-2.13 -3.9,-3.12 -2.39,2.3 -4.89,5.3 -7.96,6.65 -3.28,1.12 -4.55,-2.38 -5.53,-4.74 -3.62,-9.77 -5.93,-19.91 -5.68,-30.37 z"
     id="path276"
     inkscape:connector-curvature="0"
     style="fill:#ffac00" />
  <path
     d="m 777.36014,725.38481 c 2.36,10.16 4.52,22.42 1.15,32.51 10,-6.73 21.61,-11.86 33.84,-12.05 -5.76,13.55 -15.98,25.3 -29.57,31.34 -7.91,3.57 -16.43,4.76 -25.05,4.56 -0.45,-12.2 0.64,-25.26 4.93,-36.77 2.89,-7.89 7.64,-14.88 14.7,-19.59 z"
     id="path278"
     inkscape:connector-curvature="0"
     style="fill:#ffac00" />
  <path
     d="m 246.08014,725.39481 c 5.89,4 10.06,9.18 13.03,15.62 5.71,12.38 7.09,27.24 6.59,40.72 -8.53,0.22 -16.95,-0.95 -24.79,-4.44 -13.66,-5.97 -24.07,-17.86 -29.82,-31.45 12.24,0.2 23.76,5.29 33.77,12.02 -3.26,-10.19 -1.17,-22.26 1.22,-32.47 z"
     id="path280"
     inkscape:connector-curvature="0"
     style="fill:#ffac00" />
  <path
     d="m 280.03014,774.29481 c 6.43,3.24 11.97,7.72 16.24,13.54 8.58,11.49 12.68,26.63 13.89,40.74 -10.43,0.83 -20.72,0.34 -30.75,-2.84 -11.84,-3.73 -22.36,-11.05 -28.93,-21.71 11.99,-2.99 24.69,-1.19 35.84,3.92 -5.29,-9.84 -5.73,-22.7 -6.29,-33.65 z"
     id="path282"
     inkscape:connector-curvature="0"
     style="fill:#ffac00" />
  <path
     d="m 743.43014,774.29481 c -0.54,10.94 -1.13,23.58 -6.13,33.51 11.23,-4.93 23.61,-6.78 35.63,-3.79 -4.67,7.66 -11.52,13.69 -19.45,17.81 -12.54,6.52 -26.28,7.88 -40.2,6.76 0.93,-10.94 3.47,-21.76 8.32,-31.65 4.72,-9.7 12.02,-17.91 21.83,-22.64 z"
     id="path284"
     inkscape:connector-curvature="0"
     style="fill:#ffac00" />
  <path
     d="m 321.31014,816.44481 c 1.06,0.38 2.11,0.76 3.16,1.16 19.98,7.51 32.85,25.89 37.95,46.06 -8.64,2.56 -17.51,3.96 -26.53,3.28 -14.94,-1.02 -29.39,-7.68 -39.68,-18.59 11.66,-1.97 23.62,-1.63 35.29,0.02 -6.02,-9.21 -8.54,-21.2 -10.19,-31.93 z"
     id="path286"
     inkscape:connector-curvature="0"
     style="fill:#ffac00" />
  <path
     d="m 702.13014,816.42481 c -1.65,10.76 -4.17,22.7 -10.18,31.95 11.57,-1.64 23.7,-2 35.24,-0.01 -8.95,9.55 -21.22,15.84 -34.1,17.94 -10.82,1.77 -21.64,0.49 -32.08,-2.65 2.11,-8.23 5.42,-16.1 10.11,-23.2 7.35,-11.32 18.11,-19.89 31.01,-24.03 z"
     id="path288"
     inkscape:connector-curvature="0"
     style="fill:#ffac00" />
  <path
     d="m 370.59014,849.57481 c 7.36,1.42 14.21,4.25 20.3,8.65 11.51,8.19 20.31,20.57 26.15,33.31 -11.96,4.51 -24.31,7.18 -37.15,6.65 -11.31,-0.53 -22.34,-3.39 -31.86,-9.68 12.01,-6.42 25.2,-10.12 38.9,-8.84 -7.19,-7.29 -11.78,-17.69 -15.32,-27.18 -0.34,-0.97 -0.69,-1.94 -1.02,-2.91 z"
     id="path290"
     inkscape:connector-curvature="0"
     style="fill:#ffac00" />
  <path
     d="m 652.85014,849.57481 c -3.69,10.45 -8.49,22.1 -16.36,30.1 13.71,-1.31 26.9,2.42 38.92,8.82 -9.41,6.23 -20.33,9.1 -31.52,9.67 -12.93,0.61 -25.46,-2.09 -37.5,-6.63 4.36,-9.43 9.95,-18.13 17.2,-25.61 7.94,-8.25 17.9,-14.32 29.26,-16.35 z"
     id="path292"
     inkscape:connector-curvature="0"
     style="fill:#ffac00" />
  <path
     d="m 424.47014,877.59481 c 0.99,0.13 1.97,0.27 2.95,0.41 7.22,1.09 14.1,2.39 20.44,6.21 8.34,5.08 15.43,13.08 23.08,18.93 11.19,8.06 26.43,10.77 39.95,10.92 11.02,0.05 22.7,-1.53 32.86,-5.97 13.18,-5.3 21.5,-18.89 34.62,-25.39 6.32,-3.08 13.69,-4.16 20.59,-5.11 -6.1,11.68 -14.67,22.16 -26.22,28.78 14.07,-0.68 28.14,2.24 40.26,9.55 -10.1,4.91 -21.79,8.47 -33.1,8.09 -8.02,-0.41 -16.03,-2.67 -23.97,-3.91 -13.25,-2.28 -26.8,-1.91 -40,0.56 -2.78,0.56 -5.3,0.64 -8.08,0.06 -12.79,-2.4 -25.87,-2.92 -38.75,-0.87 -8.39,1.2 -16.77,3.63 -25.22,4.14 -11.44,0.48 -23.23,-3.13 -33.46,-8.06 12.12,-7.31 26.16,-10.21 40.22,-9.57 -11.48,-6.64 -20.1,-17.12 -26.17,-28.77 z"
     id="path294"
     inkscape:connector-curvature="0"
     style="fill:#ffac00" />
</svg>
